<svg xmlns="http://www.w3.org/2000/svg" viewBox="0 0 960 720" role="img" aria-labelledby="title desc">
  <title id="title">PixelWizard research teaser</title>
  <desc id="desc">A structured research teaser with image generation, editing, and evaluation panels.</desc>
  <defs>
    <linearGradient id="sky" x1="0" y1="0" x2="1" y2="1">
      <stop offset="0" stop-color="#ecfbff"/>
      <stop offset="1" stop-color="#f8fafc"/>
    </linearGradient>
    <linearGradient id="warm" x1="0" y1="0" x2="1" y2="1">
      <stop offset="0" stop-color="#ffd36b"/>
      <stop offset="1" stop-color="#c77700"/>
    </linearGradient>
    <linearGradient id="cool" x1="0" y1="0" x2="1" y2="1">
      <stop offset="0" stop-color="#39b4c6"/>
      <stop offset="1" stop-color="#0f5165"/>
    </linearGradient>
  </defs>
  <rect width="960" height="720" fill="url(#sky)"/>
  <rect x="56" y="56" width="848" height="608" rx="24" fill="#ffffff" stroke="#dce3ec"/>
  <rect x="96" y="100" width="768" height="68" rx="12" fill="#142033"/>
  <circle cx="134" cy="134" r="12" fill="#dff3f6"/>
  <circle cx="174" cy="134" r="12" fill="#f0a11a"/>
  <circle cx="214" cy="134" r="12" fill="#2f855a"/>
  <rect x="684" y="122" width="140" height="24" rx="12" fill="#e8eef5"/>
  <rect x="96" y="204" width="236" height="318" rx="16" fill="#eef6f8" stroke="#c7dce3"/>
  <rect x="362" y="204" width="236" height="318" rx="16" fill="#f7f3ea" stroke="#e0ceb0"/>
  <rect x="628" y="204" width="236" height="318" rx="16" fill="#eef6f0" stroke="#c8dfd2"/>
  <g transform="translate(130 242)">
    <rect width="168" height="168" rx="18" fill="url(#cool)"/>
    <rect x="26" y="28" width="44" height="44" fill="#dff3f6" opacity=".95"/>
    <rect x="78" y="28" width="64" height="44" fill="#ffffff" opacity=".82"/>
    <rect x="26" y="80" width="64" height="62" fill="#f0a11a" opacity=".88"/>
    <rect x="98" y="98" width="44" height="44" fill="#2f855a" opacity=".95"/>
    <path d="M28 198h112" stroke="#0f5165" stroke-width="12" stroke-linecap="round"/>
    <path d="M28 226h78" stroke="#9ab5bf" stroke-width="10" stroke-linecap="round"/>
  </g>
  <g transform="translate(396 242)">
    <rect width="168" height="168" rx="18" fill="url(#warm)"/>
    <path d="M36 122 78 48l34 56 22-28 22 46z" fill="#fff8e8"/>
    <circle cx="124" cy="48" r="18" fill="#ffffff"/>
    <path d="M28 198h112" stroke="#9c6500" stroke-width="12" stroke-linecap="round"/>
    <path d="M28 226h84" stroke="#caa366" stroke-width="10" stroke-linecap="round"/>
  </g>
  <g transform="translate(662 242)">
    <rect width="168" height="168" rx="18" fill="#ffffff" stroke="#bfdbc9"/>
    <path d="M38 122h92" stroke="#2f855a" stroke-width="16" stroke-linecap="round"/>
    <path d="M64 88h78" stroke="#1f7a8c" stroke-width="16" stroke-linecap="round"/>
    <path d="M28 56h120" stroke="#f0a11a" stroke-width="16" stroke-linecap="round"/>
    <path d="M28 198h112" stroke="#245f42" stroke-width="12" stroke-linecap="round"/>
    <path d="M28 226h64" stroke="#9bc5ad" stroke-width="10" stroke-linecap="round"/>
  </g>
  <path d="M332 360h30" stroke="#8090a3" stroke-width="10" stroke-linecap="round"/>
  <path d="M598 360h30" stroke="#8090a3" stroke-width="10" stroke-linecap="round"/>
  <rect x="178" y="562" width="604" height="46" rx="23" fill="#eef2f7"/>
  <rect x="204" y="578" width="178" height="14" rx="7" fill="#1f7a8c"/>
  <rect x="410" y="578" width="146" height="14" rx="7" fill="#c77700"/>
  <rect x="584" y="578" width="172" height="14" rx="7" fill="#2f855a"/>
</svg>
